<svg id="visual" viewBox="0 0 900 600" width="900" height="600" xmlns="http://www.w3.org/2000/svg" xmlns:xlink="http://www.w3.org/1999/xlink" version="1.1"><rect x="0" y="0" width="900" height="600" fill="#ffffff"></rect><path d="M0 284L37.5 291.2C75 298.3 150 312.7 225 317.3C300 322 375 317 450 308.8C525 300.7 600 289.3 675 288.2C750 287 825 296 862.5 300.5L900 305L900 0L862.5 0C825 0 750 0 675 0C600 0 525 0 450 0C375 0 300 0 225 0C150 0 75 0 37.5 0L0 0Z" fill="#fff1e0" stroke-linecap="round" stroke-linejoin="miter"></path></svg>